# xmcd CD database file
#
# Track frame offsets:
#	150
#	7637
#	20982
#	34330
#	40715
#	63365
#	77595
#	97332
#	144270
#	146700
#	166077
#	172770
#	189132
#	208255
#	218315
#	232792
#	242775
#	247402
#	270225
#	282355
#	299057
#	316060
#
# Disc length: 4434 seconds
#
# Revision: 2
# Processed by: cddbd v1.4PL0 Copyright (c) Steve Scherf et al.
# Submitted via: CDex 1.40Release
#
DISCID=30115016
DTITLE=Various Artist - A Tribute To Leadbelly
DYEAR=1989
DGENRE=Blues
TTITLE0=Intro - Leadbelly
TTITLE1=Youn Must Have That True Religion
TTITLE2=I Know It Was The Blood
TTITLE3=Second Intro - Leadbelly Talking About The Blues
TTITLE4=The Best Of Friends
TTITLE5=Rock Island Line
TTITLE6=Poor Howard
TTITLE7=John Henry
TTITLE8=Intro - Alan Lomax and Leadbelly On Meter
TTITLE9=The Bourgeois Blues
TTITLE10=Redbird
TTITLE11=In The Pines (Where Did You Sleep Last Night)
TTITLE12=Kisses Sweeter Than Wine
TTITLE13=Pigmeat
TTITLE14=Lord Lord Lord
TTITLE15=Ain't Goin Down To De Well No Mo'
TTITLE16=Intro - Pete Seeger
TTITLE17=Bring Me Lil- Water Silvy
TTITLE18=On A Monday
TTITLE19=Midnight Special
TTITLE20=Meeting At The Building
TTITLE21=Good Night Irene
EXTD=YEAR: 1989 ID3G: 0
EXTT0=
EXTT1=
EXTT2=
EXTT3=
EXTT4=
EXTT5=
EXTT6=
EXTT7=
EXTT8=
EXTT9=
EXTT10=
EXTT11=
EXTT12=
EXTT13=
EXTT14=
EXTT15=
EXTT16=
EXTT17=
EXTT18=
EXTT19=
EXTT20=
EXTT21=
PLAYORDER=
